<svg data-name="Layer 1" xmlns="http://www.w3.org/2000/svg" viewBox="0 0 48 48"><path d="M2.24 12H1.16v-1.69h1.08zm-1.08 9.41V13h1.08v8.38zm9.4-7.07a3.35 3.35 0 011.27-1.1 3.75 3.75 0 011.69-.38 2.94 2.94 0 012.49 1 5.54 5.54 0 01.77 3.3v4.23h-1V17a4 4 0 00-.55-2.37 2.14 2.14 0 00-1.79-.7 2.66 2.66 0 00-1.26.29 2.2 2.2 0 00-.87.84 2.38 2.38 0 00-.27.79 8.68 8.68 0 00-.09 1.52v4.08h-1v-4.73a3.26 3.26 0 00-.59-2.14 2.23 2.23 0 00-1.8-.69 2.77 2.77 0 00-1.28.29 2.2 2.2 0 00-.87.84 2.39 2.39 0 00-.28.79A10.19 10.19 0 005 17.33v4.08H4V13h1v1a3.18 3.18 0 011.13-.84 3.69 3.69 0 011.48-.28 3.7 3.7 0 011.73.4 2.94 2.94 0 011.2 1.08zM18.48 13h1.05v1.4a3.3 3.3 0 011.31-1.13 4.05 4.05 0 011.81-.43A4.31 4.31 0 0127 17.26a4.3 4.3 0 01-1.23 3.11 4.41 4.41 0 01-4.92.86 3.57 3.57 0 01-1.36-1.15v4h-1.01V13zm1.05 4.14a3.49 3.49 0 00.95 2.45 3 3 0 002.22 1 3.08 3.08 0 002.27-1 3.24 3.24 0 00.94-2.37 3.39 3.39 0 00-.91-2.38 3 3 0 00-2.29-1 3 3 0 00-2.19 1 3.29 3.29 0 00-.95 2.33zm8.35.06a4.41 4.41 0 011.26-3.16 4 4 0 013-1.31 4.4 4.4 0 014.39 4.36 4.47 4.47 0 01-1.26 3.2 4.06 4.06 0 01-3.05 1.33 4.15 4.15 0 01-3.08-1.3 4.33 4.33 0 01-1.26-3.12zm1.13 0a3.38 3.38 0 00.92 2.43 3 3 0 002.29 1 3 3 0 002.26-1 3.44 3.44 0 00.92-2.44 3.37 3.37 0 00-.93-2.45 3.14 3.14 0 00-2.35-.95 2.91 2.91 0 00-2.2 1 3.44 3.44 0 00-.92 2.42zm9.51 4.2v-7.3h-1.59V13h1.59v-2.69h1.08V13h1.59v1.08H39.6v7.3zm3-2.64h1.1a1.89 1.89 0 00.45 1.3 1.4 1.4 0 001.11.52 1.46 1.46 0 001.06-.4 1.31 1.31 0 00.42-1 1.37 1.37 0 00-.34-1 3 3 0 00-1.2-.69 4.41 4.41 0 01-1.82-1 2.15 2.15 0 01-.42-1.39 2.21 2.21 0 01.71-1.67 2.59 2.59 0 013.41-.01 2.42 2.42 0 01.68 1.7h-1.13a1.36 1.36 0 00-.38-.92 1.25 1.25 0 00-.92-.33 1.18 1.18 0 00-.88.36 1.21 1.21 0 00-.35.88 1.33 1.33 0 00.14.63 1.42 1.42 0 00.48.46 4 4 0 00.89.36l.78.26a2.26 2.26 0 011.53 2.31 2.33 2.33 0 01-.76 1.79 2.69 2.69 0 01-1.91.71 2.49 2.49 0 01-1.9-.77 3.11 3.11 0 01-.75-2.09z" fill="#0083ae"/><path d="M9 34.41H7.89v-2H9zm4 .68a2.05 2.05 0 00.88 1.14 2.79 2.79 0 001.56.41 3 3 0 002.29-1 3.64 3.64 0 00.87-2.55v-.22a4.33 4.33 0 01-1.39 1.26 3.55 3.55 0 01-1.71.42 4.44 4.44 0 01-3.16-7.51 4.1 4.1 0 013.06-1.26 4.18 4.18 0 011.83.38 3.74 3.74 0 011.37 1.19V26h1.05v7a5 5 0 01-1.1 3.43 3.89 3.89 0 01-3 1.24A4.18 4.18 0 0113 37a3.18 3.18 0 01-1.32-1.89zm-.75-4.94a3.45 3.45 0 00.93 2.46 3 3 0 002.26 1 3 3 0 002.19-1 3.3 3.3 0 00.95-2.34 3.44 3.44 0 00-.94-2.44 2.89 2.89 0 00-2.2-1 3 3 0 00-2.25 1 3.24 3.24 0 00-1 2.32zm8.61.08a4.36 4.36 0 011.27-3.16 4 4 0 013-1.31 4.4 4.4 0 014.39 4.36 4.47 4.47 0 01-1.26 3.2 4.06 4.06 0 01-3.05 1.33 4.15 4.15 0 01-3.08-1.3 4.33 4.33 0 01-1.26-3.12zm1.13 0a3.43 3.43 0 00.92 2.43 3.14 3.14 0 004.56 0 3.45 3.45 0 00.91-2.44 3.4 3.4 0 00-.92-2.45A3.18 3.18 0 0025 26.8a2.87 2.87 0 00-2.19 1 3.41 3.41 0 00-.92 2.43zM30.68 26h1.06v4.45a4 4 0 00.56 2.42 2.17 2.17 0 001.83.72 2.59 2.59 0 001.27-.3 2.18 2.18 0 00.88-.85 2.33 2.33 0 00.28-.77 9.31 9.31 0 00.08-1.55V26h1.08v8.38h-1.08v-.88a2.83 2.83 0 01-1.09.86 3.51 3.51 0 01-1.45.27 3.22 3.22 0 01-2.62-1 5.2 5.2 0 01-.8-3.25V26zm12 8.38h-1L38.44 26h1.14l2.68 6.76L45 26h1.17l-3.47 8.41z" fill="#8f8f8f"/></svg>